<?xml version="1.0" standalone="no"?>
<!DOCTYPE svg PUBLIC "-//W3C//DTD SVG 20010904//EN"
 "http://www.w3.org/TR/2001/REC-SVG-20010904/DTD/svg10.dtd">
<svg version="1.0" xmlns="http://www.w3.org/2000/svg"
 width="224.000000pt" height="225.000000pt" viewBox="0 0 224.000000 225.000000"
 preserveAspectRatio="xMidYMid meet">

<g transform="translate(0.000000,225.000000) scale(0.100000,-0.100000)"
fill="#000000" stroke="none">
<path d="M0 1125 l0 -1125 1120 0 1120 0 0 1125 0 1125 -1120 0 -1120 0 0
-1125z m1300 1003 c202 -34 414 -149 559 -303 382 -409 371 -1041 -27 -1432
-312 -308 -788 -381 -1177 -183 -254 130 -437 354 -521 637 -32 107 -44 326
-25 439 24 143 82 286 163 409 51 76 175 204 253 260 221 158 497 220 775 173z"/>
<path d="M985 2083 c-231 -32 -475 -172 -620 -356 -81 -101 -156 -252 -186
-372 -30 -119 -33 -332 -6 -445 86 -359 353 -634 704 -727 132 -35 335 -37
461 -5 353 91 619 349 714 692 29 109 36 326 13 440 -39 195 -122 348 -264
491 -152 152 -316 239 -518 274 -79 14 -227 18 -298 8z m340 -43 c259 -66 435
-250 490 -512 12 -55 15 -168 15 -553 l0 -484 -67 -61 c-77 -69 -164 -131
-175 -123 -5 2 -8 228 -8 501 0 402 -3 507 -15 552 -49 186 -186 322 -366 365
-98 23 -99 23 -99 -33 0 -61 -23 -148 -58 -220 -52 -109 -216 -255 -346 -308
l-46 -19 -2 -423 -3 -423 -50 33 c-27 18 -80 62 -118 97 l-68 64 3 546 c3 530
4 548 25 611 47 140 152 267 266 323 77 37 200 76 277 87 94 13 253 4 345 -20z
m424 -218 c42 -38 96 -94 119 -125 44 -56 132 -217 132 -240 0 -7 -33 -27 -72
-44 l-73 -31 -7 75 c-15 153 -81 302 -183 412 -51 55 -55 62 -26 44 19 -12 69
-53 110 -91z m-1275 -39 c-50 -83 -75 -172 -82 -294 l-7 -106 -75 33 c-85 38
-85 35 -38 129 51 102 201 295 229 295 4 0 -8 -26 -27 -57z m741 -85 c111 -28
226 -119 281 -224 58 -109 60 -104 -49 -104 -145 0 -223 -34 -265 -115 -19
-39 -24 -115 -12 -201 10 -71 10 -88 -1 -99 -23 -22 -84 -23 -112 -2 -17 11
-17 19 -3 112 19 128 11 167 -43 218 -23 21 -41 40 -41 42 0 3 16 26 36 52 68
89 114 211 114 302 0 46 -8 45 95 19z m-872 -320 l47 -21 0 -113 0 -114 -111
0 -111 0 7 68 c7 67 17 124 36 194 l10 38 37 -16 c20 -9 58 -25 85 -36z m1691
-23 c9 -33 19 -97 23 -142 l6 -83 -107 0 -106 0 0 113 0 114 68 28 c37 15 71
32 77 37 14 12 22 -1 39 -67z m-487 -22 c11 -27 -25 -319 -46 -378 -51 -144
-223 -306 -356 -336 -53 -12 -56 -11 -122 21 -86 43 -224 178 -270 265 -25 48
-63 182 -63 223 0 4 20 18 45 30 52 25 110 30 102 8 -3 -7 1 -23 9 -35 27 -37
74 -21 74 26 l0 23 41 -26 c58 -36 58 -25 -1 19 -38 28 -59 37 -90 37 l-41 0
56 46 c62 50 75 51 119 5 44 -46 46 -74 21 -258 -7 -48 -6 -52 21 -70 39 -25
107 -23 137 6 23 21 23 22 10 104 -28 166 10 258 118 292 24 8 86 14 137 14
79 1 94 -2 99 -16z m9 -1031 c-3 -2 -28 9 -56 24 -112 61 -178 159 -187 278
l-5 63 65 65 c117 116 168 222 179 371 2 18 4 -154 5 -382 2 -228 1 -416 -1
-419z m-1166 688 l0 -119 -42 -11 c-24 -6 -58 -16 -76 -21 -18 -6 -39 -8 -46
-6 -16 6 -41 110 -51 210 l-7 67 111 0 111 0 0 -120z m1667 43 c-6 -70 -31
-190 -42 -202 -3 -2 -22 1 -42 7 -21 6 -57 16 -80 22 l-43 11 0 119 0 120 106
0 107 0 -6 -77z m-1367 -20 c17 -83 64 -164 142 -248 77 -82 80 -94 54 -216
-19 -87 -45 -137 -96 -183 -36 -32 -95 -66 -115 -66 -3 0 -5 173 -5 385 0 212
2 385 4 385 3 0 10 -26 16 -57z m-300 -329 l0 -167 -36 47 c-37 48 -124 211
-124 231 0 6 35 20 78 32 42 11 78 21 80 22 1 1 2 -74 2 -165z m1599 72 c-21
-53 -84 -163 -118 -206 l-21 -25 0 162 0 161 79 -21 79 -21 -19 -50z m-931
-157 c47 -16 100 -7 170 29 l59 30 5 -63 c10 -121 88 -233 203 -293 l50 -25
-53 -24 c-176 -81 -413 -100 -612 -48 -53 14 -178 60 -188 69 -2 3 16 15 41
26 57 27 121 95 148 158 12 26 26 86 32 133 l11 85 50 -33 c28 -18 66 -38 84
-44z"/>
<path d="M1380 1211 c-52 -5 -75 -13 -112 -39 -60 -42 -62 -52 -4 -18 l45 26
3 -26 c6 -56 69 -57 76 -2 3 23 9 27 60 34 32 4 47 9 34 12 -12 2 -20 8 -17
13 4 5 0 8 -7 7 -7 -1 -42 -4 -78 -7z"/>
<path d="M1017 843 c-53 -16 -53 -25 1 -77 57 -54 150 -44 201 20 28 36 27 41
-13 58 -43 18 -125 17 -189 -1z m133 -27 c19 3 44 8 55 10 18 5 18 3 -3 -15
-44 -38 -132 -37 -186 2 -17 12 -12 13 40 6 32 -5 75 -6 94 -3z"/>
</g>
</svg>
